<svg width="48" height="48" viewBox="0 0 48 48" fill="none" xmlns="http://www.w3.org/2000/svg">
<path d="M22.9779 4.48414L9.37425 11.0095C8.60005 11.3413 8.04706 12.2261 8.04706 13.1109L8.04706 27.4888C8.04706 28.0417 8.15766 28.4841 8.26826 28.9265C11.0332 36.3367 19.66 41.5348 22.8673 43.1938C23.6415 43.6362 24.4157 43.6362 25.1899 43.1938C28.2867 41.5348 37.024 36.2261 39.789 28.9265C40.0102 28.4841 40.0102 27.9312 40.0102 27.4888C40.0102 24.945 40.0102 16.5394 40.0102 13.1109C40.0102 12.2261 39.4572 11.3413 38.683 10.8989L25.0793 4.48414C24.4157 4.15234 23.6415 4.15234 22.9779 4.48414Z" fill="url(#paint0_linear_5746_990)"/>
<path d="M22.9779 9.1291L13.4664 13.6637C12.5816 14.1061 12.0286 14.9908 12.0286 15.8756V26.1614C12.0286 26.6038 12.1392 27.0462 12.2498 27.4886C14.2406 32.6867 20.213 36.4471 22.7567 37.8849C23.5309 38.3273 24.4157 38.3273 25.1899 37.8849C27.7337 36.4471 33.7061 32.6867 35.6968 27.4886C35.8074 27.0462 35.918 26.6038 35.918 26.1614C35.918 24.1706 35.918 18.6406 35.918 15.8756C35.918 14.8803 35.365 14.1061 34.4802 13.6637L24.9687 9.1291C24.4157 8.7973 23.6415 8.7973 22.9779 9.1291Z" fill="white"/>
<path d="M22.9779 34.6777C20.8765 33.4611 16.1207 30.4749 14.6829 26.2722C14.6829 26.1616 14.6829 26.051 14.5723 25.8298V16.2076L22.8673 12.2261L22.9466 9.17651L12.6922 13.9957C12.3604 14.2169 12.0286 14.6593 12.0286 15.1016V26.604C12.0286 26.8252 12.0286 26.9358 12.1392 27.0464C14.0193 32.5763 20.5447 36.6685 22.9779 37.9957V34.6777Z" fill="url(#paint1_linear_5746_990)"/>
<path d="M39.1434 30.3645H9.05313L8.38953 29.0373L8.38953 29.0373C8.27893 28.5949 8.16833 28.1525 8.16833 27.5995V25.9406H40.0209V27.5995C40.0209 28.9412 39.4359 29.6335 39.1434 30.3645Z" fill="#ECEBEB" style="mix-blend-mode:multiply"/>
<path d="M39.8996 17.092H8.04706V27.3777H39.8996V17.092Z" fill="#9E3BA8"/>
<path d="M32.7411 24.8935C32.3604 24.8935 32.0001 24.8642 31.6603 24.8057C31.3206 24.7412 31.0306 24.6534 30.7904 24.5421V23.18C31.054 23.3031 31.3469 23.4026 31.6691 23.4788C31.9913 23.555 32.293 23.593 32.5742 23.593C32.8671 23.593 33.0868 23.5696 33.2332 23.5227C33.3855 23.47 33.4617 23.3558 33.4617 23.18C33.4617 23.057 33.4178 22.9604 33.3299 22.8901C33.2479 22.8198 33.1161 22.7553 32.9345 22.6967C32.7587 22.6382 32.5273 22.5649 32.2403 22.4771C31.8595 22.354 31.5578 22.2193 31.3352 22.0728C31.1126 21.9264 30.9515 21.7477 30.8519 21.5368C30.7582 21.3259 30.7113 21.0682 30.7113 20.7636C30.7113 20.207 30.9075 19.7852 31.3 19.4982C31.6984 19.2053 32.2871 19.0588 33.0663 19.0588C33.3768 19.0588 33.696 19.0852 34.0241 19.1379C34.358 19.1906 34.6275 19.2492 34.8325 19.3137V20.6845C34.5572 20.5732 34.2936 20.4941 34.0417 20.4472C33.7898 20.4004 33.5525 20.3769 33.3299 20.3769C33.0721 20.3769 32.8525 20.3974 32.6708 20.4384C32.4892 20.4794 32.3984 20.5849 32.3984 20.7548C32.3984 20.9012 32.4746 21.0096 32.6269 21.0799C32.7851 21.1443 33.0633 21.2293 33.4617 21.3347C33.9245 21.4577 34.276 21.6071 34.5162 21.7829C34.7622 21.9586 34.9292 22.1636 35.017 22.398C35.1049 22.6264 35.1488 22.8871 35.1488 23.18C35.1488 23.6956 34.9497 24.1115 34.5513 24.4278C34.153 24.7383 33.5496 24.8935 32.7411 24.8935Z" fill="white"/>
<path d="M26.691 24.8936C26.445 24.8936 26.2106 24.876 25.988 24.8408C25.7654 24.8115 25.5516 24.7618 25.3466 24.6915V23.3206C25.4872 23.3792 25.6453 23.4232 25.8211 23.4525C25.9968 23.4817 26.1726 23.4964 26.3483 23.4964C26.6646 23.4964 26.8902 23.432 27.0249 23.3031C27.1597 23.1742 27.227 22.9604 27.227 22.6616V19.1467H28.879V22.9252C28.879 23.5403 28.6916 24.0236 28.3166 24.3751C27.9476 24.7207 27.4057 24.8936 26.691 24.8936Z" fill="white"/>
<path d="M19.5583 24.8057V19.1467H22.4757C22.9385 19.1467 23.3193 19.2405 23.618 19.4279C23.9227 19.6095 24.1482 19.8585 24.2947 20.1748C24.4411 20.4912 24.5143 20.8427 24.5143 21.2293C24.5143 21.6276 24.4294 21.9821 24.2595 22.2925C24.0896 22.603 23.8494 22.8461 23.539 23.0219C23.2285 23.1976 22.8623 23.2855 22.4406 23.2855H21.2103V24.8057H19.5583ZM21.2103 22.0201H22.0627C22.3205 22.0201 22.5108 21.9469 22.6339 21.8005C22.7627 21.654 22.8272 21.4636 22.8272 21.2293C22.8272 20.9774 22.7686 20.7782 22.6514 20.6318C22.5343 20.4853 22.3527 20.4121 22.1066 20.4121H21.2103V22.0201Z" fill="white"/>
<path d="M12.9231 24.8057V19.1467H16.0338C16.6079 19.1467 17.0443 19.2815 17.3431 19.5509C17.6418 19.8204 17.7912 20.2071 17.7912 20.7109C17.7912 21.0038 17.7356 21.2498 17.6242 21.449C17.5188 21.6482 17.3782 21.8063 17.2025 21.9235C17.4426 22.0172 17.633 22.1549 17.7736 22.3365C17.9201 22.5122 17.9933 22.7758 17.9933 23.1273C17.9933 23.6604 17.8293 24.0734 17.5012 24.3663C17.1732 24.6592 16.7075 24.8057 16.1041 24.8057H12.9231ZM14.5136 21.405H15.5856C15.9898 21.405 16.1919 21.2234 16.1919 20.8602C16.1919 20.6786 16.1421 20.541 16.0426 20.4472C15.9488 20.3535 15.7819 20.3066 15.5417 20.3066H14.5136V21.405ZM14.5136 23.6546H15.6559C15.8785 23.6546 16.0426 23.6077 16.148 23.514C16.2534 23.4202 16.3062 23.265 16.3062 23.0482C16.3062 22.8666 16.2534 22.729 16.148 22.6352C16.0426 22.5415 15.8668 22.4947 15.6208 22.4947H14.5136V23.6546Z" fill="white"/>
<defs>
<linearGradient id="paint0_linear_5746_990" x1="17.7892" y1="6.28447" x2="32.0561" y2="39.1606" gradientUnits="userSpaceOnUse">
<stop stop-color="#AF40B8"/>
<stop offset="0.9975" stop-color="#853291"/>
</linearGradient>
<linearGradient id="paint1_linear_5746_990" x1="23.8861" y1="23.5886" x2="11.2415" y2="23.5886" gradientUnits="userSpaceOnUse">
<stop stop-color="white"/>
<stop offset="1" stop-color="#EBEBEB"/>
</linearGradient>
</defs>
</svg>
